<mxfile host="app.diagrams.net" modified="2022-02-03T13:45:42.868Z" agent="5.0 (Windows NT 10.0; Win64; x64) AppleWebKit/537.36 (KHTML, like Gecko) Chrome/97.0.4692.99 Safari/537.36" etag="SDvqr4OAguNsQs-qHD-J" version="16.5.2" type="github">
  <diagram id="geV-e4haCWNm6dhYaODH" name="Page-1">
    <mxGraphModel dx="766" dy="450" grid="1" gridSize="10" guides="1" tooltips="1" connect="1" arrows="1" fold="1" page="1" pageScale="1" pageWidth="850" pageHeight="1100" math="0" shadow="0">
      <root>
        <mxCell id="0" />
        <mxCell id="1" parent="0" />
        <mxCell id="CFy70QxZDCoatLMjdoaV-2" value="" style="rounded=0;whiteSpace=wrap;html=1;" vertex="1" parent="1">
          <mxGeometry x="340" y="75" width="120" height="65" as="geometry" />
        </mxCell>
        <mxCell id="CFy70QxZDCoatLMjdoaV-3" value="WebSub" style="rounded=0;whiteSpace=wrap;html=1;" vertex="1" parent="1">
          <mxGeometry x="550" y="196.25" width="120" height="60" as="geometry" />
        </mxCell>
        <mxCell id="CFy70QxZDCoatLMjdoaV-4" value="Partner Management service" style="rounded=0;whiteSpace=wrap;html=1;" vertex="1" parent="1">
          <mxGeometry x="142.5" y="200" width="120" height="60" as="geometry" />
        </mxCell>
        <mxCell id="CFy70QxZDCoatLMjdoaV-5" value="5" style="ellipse;whiteSpace=wrap;html=1;aspect=fixed;" vertex="1" parent="1">
          <mxGeometry x="100" y="210" width="32.5" height="32.5" as="geometry" />
        </mxCell>
        <mxCell id="CFy70QxZDCoatLMjdoaV-6" value="4" style="ellipse;whiteSpace=wrap;html=1;aspect=fixed;" vertex="1" parent="1">
          <mxGeometry x="230" y="280" width="32.5" height="32.5" as="geometry" />
        </mxCell>
        <mxCell id="CFy70QxZDCoatLMjdoaV-7" value="" style="rounded=0;whiteSpace=wrap;html=1;" vertex="1" parent="1">
          <mxGeometry x="480" y="320" width="140" height="60" as="geometry" />
        </mxCell>
        <mxCell id="CFy70QxZDCoatLMjdoaV-8" value="Identity Service" style="rounded=0;whiteSpace=wrap;html=1;" vertex="1" parent="1">
          <mxGeometry x="200" y="320" width="120" height="60" as="geometry" />
        </mxCell>
        <mxCell id="CFy70QxZDCoatLMjdoaV-9" value="3" style="ellipse;whiteSpace=wrap;html=1;aspect=fixed;" vertex="1" parent="1">
          <mxGeometry x="531.25" y="280" width="32.5" height="32.5" as="geometry" />
        </mxCell>
        <mxCell id="CFy70QxZDCoatLMjdoaV-10" value="1" style="ellipse;whiteSpace=wrap;html=1;aspect=fixed;" vertex="1" parent="1">
          <mxGeometry x="383.75" y="40" width="32.5" height="32.5" as="geometry" />
        </mxCell>
        <mxCell id="CFy70QxZDCoatLMjdoaV-11" value="2" style="ellipse;whiteSpace=wrap;html=1;aspect=fixed;" vertex="1" parent="1">
          <mxGeometry x="587.5" y="158.75" width="32.5" height="32.5" as="geometry" />
        </mxCell>
        <mxCell id="CFy70QxZDCoatLMjdoaV-13" value="" style="verticalLabelPosition=bottom;html=1;verticalAlign=top;align=center;strokeColor=none;fillColor=#00BEF2;shape=mxgraph.azure.access_control;" vertex="1" parent="1">
          <mxGeometry x="340" y="80" width="50" height="50" as="geometry" />
        </mxCell>
        <mxCell id="CFy70QxZDCoatLMjdoaV-14" value="Key Manager" style="text;html=1;strokeColor=none;fillColor=none;align=center;verticalAlign=middle;whiteSpace=wrap;rounded=0;" vertex="1" parent="1">
          <mxGeometry x="395" y="80" width="60" height="30" as="geometry" />
        </mxCell>
        <mxCell id="CFy70QxZDCoatLMjdoaV-15" value="" style="aspect=fixed;html=1;points=[];align=center;image;fontSize=12;image=img/lib/azure2/storage/Data_Share_Invitations.svg;" vertex="1" parent="1">
          <mxGeometry x="490" y="328.5" width="46.89" height="31.5" as="geometry" />
        </mxCell>
        <mxCell id="CFy70QxZDCoatLMjdoaV-16" value="Data Share" style="text;html=1;strokeColor=none;fillColor=none;align=center;verticalAlign=middle;whiteSpace=wrap;rounded=0;" vertex="1" parent="1">
          <mxGeometry x="540" y="335" width="70" height="30" as="geometry" />
        </mxCell>
        <mxCell id="CFy70QxZDCoatLMjdoaV-17" value="Auth Adapter" style="rounded=0;whiteSpace=wrap;html=1;" vertex="1" parent="1">
          <mxGeometry x="150" y="98.75" width="120" height="60" as="geometry" />
        </mxCell>
        <mxCell id="CFy70QxZDCoatLMjdoaV-19" value="6" style="ellipse;whiteSpace=wrap;html=1;aspect=fixed;" vertex="1" parent="1">
          <mxGeometry x="193.75" y="60" width="32.5" height="32.5" as="geometry" />
        </mxCell>
        <mxCell id="CFy70QxZDCoatLMjdoaV-20" value="&lt;b&gt;&lt;font style=&quot;font-size: 14px&quot;&gt;Credential Service&lt;/font&gt;&lt;/b&gt;" style="rounded=1;whiteSpace=wrap;html=1;" vertex="1" parent="1">
          <mxGeometry x="340" y="200" width="130" height="60" as="geometry" />
        </mxCell>
        <mxCell id="CFy70QxZDCoatLMjdoaV-21" value="" style="endArrow=classic;html=1;rounded=0;fontSize=14;entryX=0;entryY=0.25;entryDx=0;entryDy=0;" edge="1" parent="1" target="CFy70QxZDCoatLMjdoaV-7">
          <mxGeometry width="50" height="50" relative="1" as="geometry">
            <mxPoint x="420" y="262" as="sourcePoint" />
            <mxPoint x="430" y="190" as="targetPoint" />
            <Array as="points">
              <mxPoint x="420" y="335" />
            </Array>
          </mxGeometry>
        </mxCell>
        <mxCell id="CFy70QxZDCoatLMjdoaV-22" value="" style="endArrow=classic;startArrow=classic;html=1;rounded=0;fontSize=14;entryX=0;entryY=0.5;entryDx=0;entryDy=0;" edge="1" parent="1" target="CFy70QxZDCoatLMjdoaV-3">
          <mxGeometry width="50" height="50" relative="1" as="geometry">
            <mxPoint x="470" y="226" as="sourcePoint" />
            <mxPoint x="420" y="180" as="targetPoint" />
          </mxGeometry>
        </mxCell>
        <mxCell id="CFy70QxZDCoatLMjdoaV-24" value="" style="endArrow=classic;html=1;rounded=0;fontSize=14;exitX=0.5;exitY=1;exitDx=0;exitDy=0;entryX=0.446;entryY=0.017;entryDx=0;entryDy=0;entryPerimeter=0;" edge="1" parent="1" source="CFy70QxZDCoatLMjdoaV-2" target="CFy70QxZDCoatLMjdoaV-20">
          <mxGeometry width="50" height="50" relative="1" as="geometry">
            <mxPoint x="370" y="230" as="sourcePoint" />
            <mxPoint x="420" y="180" as="targetPoint" />
          </mxGeometry>
        </mxCell>
        <mxCell id="CFy70QxZDCoatLMjdoaV-25" value="" style="endArrow=classic;html=1;rounded=0;fontSize=14;entryX=0;entryY=0.5;entryDx=0;entryDy=0;" edge="1" parent="1" target="CFy70QxZDCoatLMjdoaV-20">
          <mxGeometry width="50" height="50" relative="1" as="geometry">
            <mxPoint x="262.5" y="230" as="sourcePoint" />
            <mxPoint x="312.5" y="180" as="targetPoint" />
          </mxGeometry>
        </mxCell>
        <mxCell id="CFy70QxZDCoatLMjdoaV-26" value="" style="endArrow=classic;html=1;rounded=0;fontSize=14;exitX=1;exitY=1;exitDx=0;exitDy=0;" edge="1" parent="1" source="CFy70QxZDCoatLMjdoaV-17">
          <mxGeometry width="50" height="50" relative="1" as="geometry">
            <mxPoint x="370" y="230" as="sourcePoint" />
            <mxPoint x="350" y="200" as="targetPoint" />
          </mxGeometry>
        </mxCell>
        <mxCell id="CFy70QxZDCoatLMjdoaV-27" value="" style="endArrow=classic;html=1;rounded=0;fontSize=14;" edge="1" parent="1">
          <mxGeometry width="50" height="50" relative="1" as="geometry">
            <mxPoint x="320" y="340" as="sourcePoint" />
            <mxPoint x="390" y="260" as="targetPoint" />
            <Array as="points">
              <mxPoint x="390" y="340" />
            </Array>
          </mxGeometry>
        </mxCell>
      </root>
    </mxGraphModel>
  </diagram>
</mxfile>
